<svg xmlns="http://www.w3.org/2000/svg" width="291" height="292.141" viewBox="0 0 291 292.141">
  <g id="add-friend" transform="translate(-1)">
    <path id="Tracé_12" data-name="Tracé 12" d="M292,180.876a59.885,59.885,0,0,0-104.37-40.117,128.89,128.89,0,0,0-19.813-8.133,71.893,71.893,0,1,0-77-.082A128.558,128.558,0,0,0,1,255.052v28.53a8.559,8.559,0,0,0,8.559,8.559H249.206a8.559,8.559,0,0,0,8.559-8.559v-28.53a128.209,128.209,0,0,0-1.492-19.369A60,60,0,0,0,292,180.876ZM74.606,71.894a54.776,54.776,0,1,1,54.776,54.776A54.838,54.838,0,0,1,74.606,71.894ZM240.647,255.052v19.971H18.118V255.052a111.068,111.068,0,0,1,159.9-99.956,59.9,59.9,0,0,0,54.075,85.691,60.244,60.244,0,0,0,7.561-.475A110.76,110.76,0,0,1,240.647,255.052Zm3.823-33.215c-.213.054-.424.11-.629.179a42.314,42.314,0,1,1,.629-.179Z" fill="#fff"/>
    <path id="Tracé_13" data-name="Tracé 13" d="M403.794,289.118h-8.559v-8.559a8.559,8.559,0,1,0-17.118,0v8.559h-8.559a8.559,8.559,0,1,0,0,17.118h8.559v8.559a8.559,8.559,0,1,0,17.118,0v-8.559h8.559a8.559,8.559,0,1,0,0-17.118Z" transform="translate(-154.588 -116.8)" fill="#fff"/>
  </g>
</svg>
