<svg xmlns="http://www.w3.org/2000/svg" width="235.002" height="299.115" viewBox="0 0 235.002 299.115">
  <g id="clipboard" transform="translate(-47.037 0)">
    <g id="Groupe_2" data-name="Groupe 2" transform="translate(47.037 0)">
      <g id="Groupe_1" data-name="Groupe 1">
        <path id="Tracé_1" data-name="Tracé 1" d="M252.13,39.19H225.069V27.084c0-3.917-4.272-5.7-8.189-5.7H195.872C190.888,7.145,178.425.023,164.183.023a32.4,32.4,0,0,0-31.69,21.364H111.841c-3.917,0-7.833,1.78-7.833,5.7V39.19H76.947a30.266,30.266,0,0,0-29.91,28.841V272.055c0,15.667,14.243,27.061,29.91,27.061H252.13c15.667,0,29.91-11.394,29.91-27.061V68.031A30.266,30.266,0,0,0,252.13,39.19ZM118.25,35.63h19.584a7.835,7.835,0,0,0,6.766-6.409A20.651,20.651,0,0,1,164.183,13.2,20.3,20.3,0,0,1,183.41,29.221a7.833,7.833,0,0,0,7.121,6.409h20.3V64.115H118.25ZM267.8,272.056c0,7.833-7.833,12.818-15.667,12.818H76.947c-7.833,0-15.667-4.985-15.667-12.818V68.031a16.022,16.022,0,0,1,15.667-14.6h27.061V71.592a7.478,7.478,0,0,0,7.833,6.766H216.879a7.832,7.832,0,0,0,8.189-6.766V53.432h27.061a16.023,16.023,0,0,1,15.667,14.6V272.056Z" transform="translate(-47.037 0)" fill="#fff"/>
        <path id="Tracé_2" data-name="Tracé 2" d="M153.791,232.532a7.121,7.121,0,0,0-9.97-.356L121.033,253.9l-9.614-9.97a7.122,7.122,0,0,0-9.97-.356,7.477,7.477,0,0,0,0,10.326l14.6,14.955a6.408,6.408,0,0,0,4.985,2.137,7.119,7.119,0,0,0,4.985-2.137L153.79,242.5a6.764,6.764,0,0,0,.411-9.558C154.071,232.8,153.934,232.662,153.791,232.532Z" transform="translate(-63.707 -73.348)" fill="#fff"/>
        <path id="Tracé_3" data-name="Tracé 3" d="M287.564,256.034H205.669a7.121,7.121,0,0,0,0,14.243h81.894a7.121,7.121,0,1,0,0-14.243Z" transform="translate(-95.289 -81.54)" fill="#fff"/>
        <path id="Tracé_4" data-name="Tracé 4" d="M153.791,148.94a7.121,7.121,0,0,0-9.97-.356L121.033,170.3l-9.614-9.97a7.121,7.121,0,0,0-9.97-.356,7.477,7.477,0,0,0,0,10.326l14.6,14.955a6.408,6.408,0,0,0,4.985,2.137,7.119,7.119,0,0,0,4.985-2.137L153.79,158.91a6.764,6.764,0,0,0,.411-9.558C154.071,149.207,153.934,149.07,153.791,148.94Z" transform="translate(-63.707 -46.726)" fill="#fff"/>
        <path id="Tracé_5" data-name="Tracé 5" d="M287.564,172.442H205.669a7.121,7.121,0,0,0,0,14.243h81.894a7.121,7.121,0,0,0,0-14.243Z" transform="translate(-95.289 -54.918)" fill="#fff"/>
        <path id="Tracé_6" data-name="Tracé 6" d="M153.791,316.123a7.122,7.122,0,0,0-9.97-.356l-22.788,21.72-9.614-9.97a7.122,7.122,0,0,0-9.97-.356,7.477,7.477,0,0,0,0,10.326l14.6,14.955a6.408,6.408,0,0,0,4.985,2.137,7.119,7.119,0,0,0,4.985-2.137l27.773-26.349a6.764,6.764,0,0,0,.411-9.558C154.071,316.391,153.934,316.254,153.791,316.123Z" transform="translate(-63.707 -99.97)" fill="#fff"/>
        <path id="Tracé_7" data-name="Tracé 7" d="M287.564,339.626H205.669a7.121,7.121,0,0,0,0,14.243h81.894a7.121,7.121,0,0,0,0-14.243Z" transform="translate(-95.289 -108.162)" fill="#fff"/>
      </g>
    </g>
  </g>
</svg>
