<svg xmlns="http://www.w3.org/2000/svg" xmlns:xlink="http://www.w3.org/1999/xlink" xmlns:svgjs="http://svgjs.dev/svgjs" version="1.1" width="245" height="33" viewBox="0 0 245 33"><svg xmlns="http://www.w3.org/2000/svg" viewBox="0 0 244.43135999999996 32.00123315564148" height="32.00123315564148" width="244.43135999999996"><g><svg viewBox="0 0 244.43135999999996 32.00123315564148" height="32.00123315564148" width="244.43135999999996"><g><svg viewBox="0 0 244.43136 32.001233155641486" height="32.00123315564148" width="244.43135999999996"><g><svg viewBox="0 0 244.43136 32.001233155641486" height="32.001233155641486" width="244.43136"><g id="textblocktransform"><svg viewBox="0 0 244.43136 32.001233155641486" height="32.001233155641486" width="244.43136" id="textblock"><g><svg viewBox="0 0 244.43136 32.001233155641486" height="32.001233155641486" width="244.43136"><g transform="matrix(1,0,0,1,0,0)"><svg width="244.43136" viewBox="-0.05 -47 362.02000000000004 47.4" height="32.001233155641486" data-palette-color="#755bb4"><path d="M11.6 0.25Q9.75 0.25 8.95-0.58 8.15-1.4 8.15-3.7L8.15-3.7Q8.15-5.25 8.45-7.45 8.75-9.65 9.5-14.1L9.5-14.1Q9.6-14.7 10.3-18.98 11-23.25 11.55-27.95L11.55-27.95Q12.05-31.95 12.05-33.95L12.05-33.95Q12.05-36.2 10.4-36.2L10.4-36.2Q9.15-36.2 7.28-34.88 5.4-33.55 3.25-30.65L3.25-30.65Q2.55-29.7 1.7-29.7L1.7-29.7Q1-29.7 0.48-30.38-0.05-31.05-0.05-31.9L-0.05-31.9Q-0.05-32.75 0.25-33.52 0.55-34.3 1.35-35.4L1.35-35.4Q3.8-38.75 6.8-40.58 9.8-42.4 13.1-42.4L13.1-42.4Q15.85-42.4 17.23-40.7 18.6-39 18.6-35.75L18.6-35.75Q18.6-32.85 17.8-27.35L17.8-27.35Q20.3-34.75 24.15-38.58 28-42.4 33.2-42.4L33.2-42.4Q37.3-42.4 39.38-40.08 41.45-37.75 41.45-33.85L41.45-33.85Q41.45-31.65 40.8-28.5L40.8-28.5 37.75-14.2Q37.25-11.7 37.25-9.9L37.25-9.9Q37.25-7.8 38.23-6.75 39.2-5.7 40.95-5.7L40.95-5.7Q42.6-5.7 44.18-6.8 45.75-7.9 47.9-10.45L47.9-10.45Q48.5-11.15 49.25-11.15L49.25-11.15Q49.9-11.15 50.28-10.55 50.65-9.95 50.65-8.9L50.65-8.9Q50.65-6.95 49.7-5.8L49.7-5.8Q47.1-2.65 44.55-1.2 42 0.25 39.2 0.25L39.2 0.25Q34.95 0.25 32.55-2.27 30.15-4.8 30.15-9.05L30.15-9.05Q30.15-10.7 30.43-12.65 30.7-14.6 31.35-17.6L31.35-17.6 33.35-26.75Q33.45-27.2 33.7-28.35 33.95-29.5 34.1-30.53 34.25-31.55 34.25-32.55L34.25-32.55Q34.25-34.15 33.35-35.1 32.45-36.05 30.8-36.05L30.8-36.05Q27.8-36.05 24.8-32.85 21.8-29.65 19.25-22.53 16.7-15.4 15.25-4.3L15.25-4.3Q14.9-1.75 14.23-0.75 13.55 0.25 11.6 0.25L11.6 0.25ZM72.1-15.35Q72.75-15.35 73.1-14.7 73.45-14.05 73.45-13.05L73.45-13.05Q73.45-10.65 72-10.2L72-10.2Q69-9.15 65.4-9L65.4-9Q64.45-4.8 61.65-2.27 58.85 0.25 55.3 0.25L55.3 0.25Q52.3 0.25 50.17-1.2 48.05-2.65 46.95-5.05 45.85-7.45 45.85-10.25L45.85-10.25Q45.85-14.05 47.3-17.03 48.75-20 51.3-21.68 53.85-23.35 56.95-23.35L56.95-23.35Q60.75-23.35 63.07-20.73 65.4-18.1 65.8-14.25L65.8-14.25Q68.15-14.4 71.4-15.25L71.4-15.25Q71.8-15.35 72.1-15.35L72.1-15.35ZM55.7-5.05Q57.3-5.05 58.47-6.35 59.65-7.65 60.05-10.1L60.05-10.1Q58.5-11.15 57.67-12.85 56.85-14.55 56.85-16.45L56.85-16.45Q56.85-17.25 57-18.05L57-18.05 56.75-18.05Q54.75-18.05 53.42-16.13 52.1-14.2 52.1-10.7L52.1-10.7Q52.1-7.95 53.17-6.5 54.25-5.05 55.7-5.05L55.7-5.05ZM91.59 0.25Q89.74 0.25 88.94-0.58 88.14-1.4 88.14-3.7L88.14-3.7Q88.14-5.25 88.44-7.45 88.74-9.65 89.49-14.1L89.49-14.1Q89.59-14.7 90.29-18.98 90.99-23.25 91.54-27.95L91.54-27.95Q92.04-31.95 92.04-33.95L92.04-33.95Q92.04-36.2 90.39-36.2L90.39-36.2Q89.14-36.2 87.27-34.88 85.39-33.55 83.24-30.65L83.24-30.65Q82.54-29.7 81.69-29.7L81.69-29.7Q80.99-29.7 80.47-30.38 79.94-31.05 79.94-31.9L79.94-31.9Q79.94-32.75 80.24-33.52 80.54-34.3 81.34-35.4L81.34-35.4Q83.79-38.75 86.79-40.58 89.79-42.4 93.09-42.4L93.09-42.4Q95.84-42.4 97.22-40.7 98.59-39 98.59-35.75L98.59-35.75Q98.59-32.85 97.79-27.35L97.79-27.35Q100.29-34.75 104.14-38.58 107.99-42.4 113.19-42.4L113.19-42.4Q117.29-42.4 119.37-40.08 121.44-37.75 121.44-33.85L121.44-33.85Q121.44-31.65 120.79-28.5L120.79-28.5 117.74-14.2Q117.24-11.7 117.24-9.9L117.24-9.9Q117.24-7.8 118.22-6.75 119.19-5.7 120.94-5.7L120.94-5.7Q122.59-5.7 124.17-6.8 125.74-7.9 127.89-10.45L127.89-10.45Q128.49-11.15 129.24-11.15L129.24-11.15Q129.89-11.15 130.27-10.55 130.64-9.95 130.64-8.9L130.64-8.9Q130.64-6.95 129.69-5.8L129.69-5.8Q127.09-2.65 124.54-1.2 121.99 0.25 119.19 0.25L119.19 0.25Q114.94 0.25 112.54-2.27 110.14-4.8 110.14-9.05L110.14-9.05Q110.14-10.7 110.42-12.65 110.69-14.6 111.34-17.6L111.34-17.6 113.34-26.75Q113.44-27.2 113.69-28.35 113.94-29.5 114.09-30.53 114.24-31.55 114.24-32.55L114.24-32.55Q114.24-34.15 113.34-35.1 112.44-36.05 110.79-36.05L110.79-36.05Q107.79-36.05 104.79-32.85 101.79-29.65 99.24-22.53 96.69-15.4 95.24-4.3L95.24-4.3Q94.89-1.75 94.22-0.75 93.54 0.25 91.59 0.25L91.59 0.25ZM132.74 0.25Q129.64 0.25 127.79-2 125.94-4.25 125.94-7.9L125.94-7.9Q125.94-11.9 127.79-15.48 129.64-19.05 132.72-21.23 135.79-23.4 139.24-23.4L139.24-23.4Q140.34-23.4 140.72-22.98 141.09-22.55 141.34-21.45L141.34-21.45Q142.39-21.65 143.54-21.65L143.54-21.65Q145.99-21.65 145.99-19.9L145.99-19.9Q145.99-18.85 145.24-14.9L145.24-14.9Q144.09-9.15 144.09-6.9L144.09-6.9Q144.09-6.15 144.47-5.7 144.84-5.25 145.44-5.25L145.44-5.25Q146.39-5.25 147.74-6.48 149.09-7.7 151.39-10.45L151.39-10.45Q151.99-11.15 152.74-11.15L152.74-11.15Q153.39-11.15 153.77-10.55 154.14-9.95 154.14-8.9L154.14-8.9Q154.14-6.9 153.19-5.8L153.19-5.8Q151.14-3.25 148.84-1.5 146.54 0.25 144.39 0.25L144.39 0.25Q142.74 0.25 141.37-0.88 139.99-2 139.29-3.95L139.29-3.95Q136.69 0.25 132.74 0.25L132.74 0.25ZM134.54-4.8Q135.64-4.8 136.64-6.1 137.64-7.4 138.09-9.55L138.09-9.55 139.94-18.75Q137.84-18.7 136.06-17.18 134.29-15.65 133.24-13.15 132.19-10.65 132.19-7.85L132.19-7.85Q132.19-6.3 132.81-5.55 133.44-4.8 134.54-4.8L134.54-4.8ZM153.64 0.25Q151.74 0.25 150.96-1.75 150.19-3.75 150.19-8.15L150.19-8.15Q150.19-14.65 152.04-20.5L152.04-20.5Q152.49-21.95 153.51-22.63 154.54-23.3 156.39-23.3L156.39-23.3Q157.39-23.3 157.79-23.05 158.19-22.8 158.19-22.1L158.19-22.1Q158.19-21.3 157.44-18.5L157.44-18.5Q156.94-16.5 156.64-15.03 156.34-13.55 156.14-11.35L156.14-11.35Q157.49-15.25 159.36-17.95 161.24-20.65 163.21-21.98 165.19-23.3 166.94-23.3L166.94-23.3Q168.69-23.3 169.41-22.5 170.14-21.7 170.14-20.05L170.14-20.05Q170.14-18.45 169.19-14.25L169.19-14.25Q168.79-12.45 168.64-11.55L168.64-11.55Q171.14-17.7 174.19-20.5 177.24-23.3 179.89-23.3L179.89-23.3Q183.14-23.3 183.14-20.05L183.14-20.05Q183.14-18.1 182.04-13L182.04-13Q181.09-8.65 181.09-7.25L181.09-7.25Q181.09-5.25 182.54-5.25L182.54-5.25Q183.54-5.25 184.91-6.48 186.29-7.7 188.59-10.45L188.59-10.45Q189.19-11.15 189.94-11.15L189.94-11.15Q190.59-11.15 190.96-10.55 191.34-9.95 191.34-8.9L191.34-8.9Q191.34-6.9 190.39-5.8L190.39-5.8Q188.24-3.15 185.76-1.45 183.29 0.25 180.14 0.25L180.14 0.25Q177.59 0.25 176.29-1.23 174.99-2.7 174.99-5.5L174.99-5.5Q174.99-6.9 175.69-10.5L175.69-10.5Q176.34-13.65 176.34-14.85L176.34-14.85Q176.34-15.65 175.79-15.65L175.79-15.65Q175.14-15.65 173.94-13.98 172.74-12.3 171.54-9.55 170.34-6.8 169.59-3.75L169.59-3.75Q169.04-1.35 168.31-0.55 167.59 0.25 165.99 0.25L165.99 0.25Q164.34 0.25 163.51-1.33 162.69-2.9 162.69-5.15L162.69-5.15Q162.69-7.05 163.19-10.65L163.19-10.65Q163.59-13.85 163.59-14.85L163.59-14.85Q163.59-15.65 163.04-15.65L163.04-15.65Q162.29-15.65 161.14-13.85 159.99-12.05 158.91-9.25 157.84-6.45 157.19-3.75L157.19-3.75Q156.64-1.4 155.91-0.58 155.19 0.25 153.64 0.25L153.64 0.25ZM209.58-11.15Q210.23-11.15 210.61-10.55 210.98-9.95 210.98-8.9L210.98-8.9Q210.98-6.9 210.03-5.8L210.03-5.8Q208.19-3.55 204.81-1.65 201.44 0.25 197.58 0.25L197.58 0.25Q192.33 0.25 189.44-2.6 186.53-5.45 186.53-10.4L186.53-10.4Q186.53-13.85 187.98-16.82 189.44-19.8 192.01-21.55 194.58-23.3 197.83-23.3L197.83-23.3Q200.73-23.3 202.48-21.58 204.23-19.85 204.23-16.9L204.23-16.9Q204.23-13.45 201.76-10.98 199.28-8.5 193.38-7.05L193.38-7.05Q194.63-4.75 198.13-4.75L198.13-4.75Q200.38-4.75 203.26-6.33 206.13-7.9 208.23-10.45L208.23-10.45Q208.83-11.15 209.58-11.15L209.58-11.15ZM196.98-18.4Q195.13-18.4 193.86-16.25 192.58-14.1 192.58-11.05L192.58-11.05 192.58-10.95Q195.53-11.65 197.23-13.05 198.94-14.45 198.94-16.3L198.94-16.3Q198.94-17.25 198.41-17.82 197.88-18.4 196.98-18.4L196.98-18.4ZM234.13 0.4Q227.48 0.4 223.48-2.13 219.48-4.65 219.48-9.85L219.48-9.85Q219.48-12.6 220.43-14.05 221.38-15.5 223.23-15.5L223.23-15.5Q224.58-15.5 225.43-14.8 226.28-14.1 226.28-13L226.28-13Q226.28-12 226.13-11.25L226.13-11.25Q226.13-11.05 226.06-10.55 225.98-10.05 225.98-9.5L225.98-9.5Q225.98-7.25 228.25-6.15 230.53-5.05 234.63-5.05L234.63-5.05Q238.88-5.05 241.28-6.58 243.68-8.1 243.68-10.85L243.68-10.85Q243.68-12.55 242.58-13.78 241.48-15 239.83-15.83 238.18-16.65 235.18-17.85L235.18-17.85Q231.33-19.35 228.91-20.7 226.48-22.05 224.75-24.38 223.03-26.7 223.03-30.15L223.03-30.15Q223.03-33.75 224.96-36.55 226.88-39.35 230.5-40.9 234.13-42.45 239.03-42.45L239.03-42.45Q242.68-42.45 245.73-41.38 248.78-40.3 250.61-38.1 252.43-35.9 252.43-32.7L252.43-32.7Q252.43-29.55 251.48-27.95 250.53-26.35 248.68-26.35L248.68-26.35Q247.38-26.35 246.5-27.15 245.63-27.95 245.63-29.05L245.63-29.05Q245.63-30 245.78-30.8L245.78-30.8Q245.93-32.3 245.93-32.7L245.93-32.7Q245.93-34.8 243.88-35.9 241.83-37 238.78-37L238.78-37Q234.48-37 232.21-35.43 229.93-33.85 229.93-31L229.93-31Q229.93-29.1 231.1-27.75 232.28-26.4 234.03-25.5 235.78-24.6 238.93-23.35L238.93-23.35Q242.73-21.8 245.03-20.55 247.33-19.3 248.96-17.15 250.58-15 250.58-11.85L250.58-11.85Q250.58-5.95 246.11-2.78 241.63 0.4 234.13 0.4L234.13 0.4ZM276.63-11.15Q277.28-11.15 277.65-10.55 278.03-9.95 278.03-8.9L278.03-8.9Q278.03-6.9 277.08-5.8L277.08-5.8Q274.93-3.15 272.38-1.45 269.83 0.25 266.53 0.25L266.53 0.25Q256.33 0.25 256.33-14.1L256.33-14.1Q256.33-16.3 256.48-18.55L256.48-18.55 254.53-18.55Q253.03-18.55 252.5-19.1 251.98-19.65 251.98-20.85L251.98-20.85Q251.98-23.65 254.23-23.65L254.23-23.65 257.08-23.65Q257.93-29.15 259.68-33.7 261.43-38.25 263.9-40.95 266.38-43.65 269.23-43.65L269.23-43.65Q271.33-43.65 272.53-41.8 273.73-39.95 273.73-37.15L273.73-37.15Q273.73-29.4 267.23-23.65L267.23-23.65 272.83-23.65Q273.63-23.65 273.98-23.3 274.33-22.95 274.33-22L274.33-22Q274.33-18.55 268.68-18.55L268.68-18.55 262.58-18.55Q262.48-16.05 262.48-14.65L262.48-14.65Q262.48-9.45 263.7-7.35 264.93-5.25 267.58-5.25L267.58-5.25Q269.73-5.25 271.38-6.55 273.03-7.85 275.28-10.45L275.28-10.45Q275.88-11.15 276.63-11.15L276.63-11.15ZM267.88-38.85Q267.13-38.85 266.2-36.98 265.28-35.1 264.45-31.78 263.63-28.45 263.08-24.4L263.08-24.4Q266.03-26.95 267.5-30.13 268.98-33.3 268.98-35.9L268.98-35.9Q268.98-38.85 267.88-38.85L267.88-38.85ZM279.07 0.25Q276.82 0.25 275.4-1.83 273.97-3.9 273.97-7L273.97-7Q273.97-10.75 274.47-13.88 274.97-17 276.13-20.5L276.13-20.5Q276.63-22 277.52-22.65 278.43-23.3 280.38-23.3L280.38-23.3Q281.47-23.3 281.9-22.95 282.32-22.6 282.32-21.9L282.32-21.9Q282.32-21.5 281.77-19.2L281.77-19.2Q281.27-17.35 280.97-15.85L280.97-15.85Q279.97-10.6 279.97-8.85L279.97-8.85Q279.97-7.8 280.22-7.38 280.47-6.95 281.02-6.95L281.02-6.95Q281.77-6.95 282.9-8.45 284.02-9.95 285.3-13 286.57-16.05 287.77-20.5L287.77-20.5Q288.18-22 289-22.65 289.82-23.3 291.47-23.3L291.47-23.3Q292.63-23.3 293.07-23.03 293.52-22.75 293.52-22L293.52-22Q293.52-20.75 292.27-15.15L292.27-15.15Q290.88-8.75 290.88-7.25L290.88-7.25Q290.88-6.3 291.27-5.78 291.68-5.25 292.32-5.25L292.32-5.25Q293.32-5.25 294.7-6.48 296.07-7.7 298.38-10.45L298.38-10.45Q298.97-11.15 299.72-11.15L299.72-11.15Q300.38-11.15 300.75-10.55 301.13-9.95 301.13-8.9L301.13-8.9Q301.13-6.9 300.18-5.8L300.18-5.8Q298.02-3.15 295.55-1.45 293.07 0.25 289.93 0.25L289.93 0.25Q287.52 0.25 286.4-1.6 285.27-3.45 285.27-6.8L285.27-6.8Q284.43-3.4 282.72-1.58 281.02 0.25 279.07 0.25L279.07 0.25ZM325.47-11.15Q326.12-11.15 326.5-10.55 326.87-9.95 326.87-8.9L326.87-8.9Q326.87-6.9 325.92-5.8L325.92-5.8Q323.87-3.3 321.42-1.53 318.97 0.25 316.57 0.25L316.57 0.25Q312.77 0.25 310.77-4.2L310.77-4.2Q308.67-1.55 307.1-0.65 305.52 0.25 303.42 0.25L303.42 0.25Q300.37 0.25 298.4-2.02 296.42-4.3 296.42-7.95L296.42-7.95Q296.42-11.95 298.12-15.38 299.82-18.8 302.8-20.98 305.77-23.15 309.47-23.55L309.47-23.55Q310.42-33.25 313.1-40.13 315.77-47 320.12-47L320.12-47Q322.27-47 323.7-45.05 325.12-43.1 325.12-39.15L325.12-39.15Q325.12-33.55 322.37-26.05 319.62-18.55 315.02-10.65L315.02-10.65Q315.22-7.75 315.9-6.5 316.57-5.25 317.62-5.25L317.62-5.25Q318.97-5.25 320.37-6.45 321.77-7.65 324.12-10.45L324.12-10.45Q324.72-11.15 325.47-11.15L325.47-11.15ZM319.57-42.1Q318.62-42.1 317.67-38.73 316.72-35.35 316.05-29.9 315.37-24.45 315.07-18.5L315.07-18.5Q320.67-30.7 320.67-38.1L320.67-38.1Q320.67-40 320.35-41.05 320.02-42.1 319.57-42.1L319.57-42.1ZM305.17-4.8Q306.12-4.8 307.07-5.58 308.02-6.35 309.47-8.45L309.47-8.45Q308.97-11.15 308.97-14.5L308.97-14.5Q308.97-15.7 309.07-18.4L309.07-18.4Q306.32-17.55 304.5-14.73 302.67-11.9 302.67-8.45L302.67-8.45Q302.67-4.8 305.17-4.8L305.17-4.8ZM329.37-26.6Q327.27-26.6 326.22-27.58 325.17-28.55 325.17-30.3L325.17-30.3Q325.17-32.05 326.55-33.23 327.92-34.4 329.97-34.4L329.97-34.4Q331.82-34.4 332.97-33.5 334.12-32.6 334.12-30.95L334.12-30.95Q334.12-28.95 332.82-27.78 331.52-26.6 329.37-26.6L329.37-26.6ZM328.97 0.25Q325.72 0.25 324.25-2.05 322.77-4.35 322.77-8.15L322.77-8.15Q322.77-10.4 323.35-13.93 323.92-17.45 324.82-20.5L324.82-20.5Q325.27-22.1 326.02-22.7 326.77-23.3 328.42-23.3L328.42-23.3Q330.97-23.3 330.97-21.6L330.97-21.6Q330.97-20.35 330.02-15.8L330.02-15.8Q328.82-10.3 328.82-8.35L328.82-8.35Q328.82-6.85 329.22-6.05 329.62-5.25 330.57-5.25L330.57-5.25Q331.47-5.25 332.82-6.5 334.17-7.75 336.42-10.45L336.42-10.45Q337.02-11.15 337.77-11.15L337.77-11.15Q338.42-11.15 338.8-10.55 339.17-9.95 339.17-8.9L339.17-8.9Q339.17-6.9 338.22-5.8L338.22-5.8Q333.27 0.25 328.97 0.25L328.97 0.25ZM360.62-15.35Q361.27-15.35 361.62-14.7 361.97-14.05 361.97-13.05L361.97-13.05Q361.97-10.65 360.52-10.2L360.52-10.2Q357.52-9.15 353.92-9L353.92-9Q352.97-4.8 350.17-2.27 347.37 0.25 343.82 0.25L343.82 0.25Q340.82 0.25 338.69-1.2 336.57-2.65 335.47-5.05 334.37-7.45 334.37-10.25L334.37-10.25Q334.37-14.05 335.82-17.03 337.27-20 339.82-21.68 342.37-23.35 345.47-23.35L345.47-23.35Q349.27-23.35 351.59-20.73 353.92-18.1 354.32-14.25L354.32-14.25Q356.67-14.4 359.92-15.25L359.92-15.25Q360.32-15.35 360.62-15.35L360.62-15.35ZM344.22-5.05Q345.82-5.05 346.99-6.35 348.17-7.65 348.57-10.1L348.57-10.1Q347.02-11.15 346.19-12.85 345.37-14.55 345.37-16.45L345.37-16.45Q345.37-17.25 345.52-18.05L345.52-18.05 345.27-18.05Q343.27-18.05 341.94-16.13 340.62-14.2 340.62-10.7L340.62-10.7Q340.62-7.95 341.69-6.5 342.77-5.05 344.22-5.05L344.22-5.05Z" opacity="1" transform="matrix(1,0,0,1,0,0)" fill="#755bb4" class="undefined-text-0" data-fill-palette-color="primary" id="text-0"/></svg></g></svg></g></svg></g></svg></g><g/></svg></g></svg></g></svg></svg>