<svg id="server" xmlns="http://www.w3.org/2000/svg" width="275.134" height="275.134" viewBox="0 0 275.134 275.134">
  <g id="Groupe_4" data-name="Groupe 4">
    <g id="Groupe_3" data-name="Groupe 3">
      <path id="Tracé_8" data-name="Tracé 8" d="M261.377,82.54a13.757,13.757,0,0,0,13.757-13.757V13.757A13.757,13.757,0,0,0,261.377,0H13.757A13.757,13.757,0,0,0,0,13.757V68.783A13.757,13.757,0,0,0,13.757,82.54H27.513V96.3H13.757A13.757,13.757,0,0,0,0,110.053V165.08a13.757,13.757,0,0,0,13.757,13.757H27.513v13.757H13.757A13.757,13.757,0,0,0,0,206.35v55.027a13.757,13.757,0,0,0,13.757,13.757h247.62a13.757,13.757,0,0,0,13.757-13.757V206.35a13.757,13.757,0,0,0-13.757-13.757H247.62V178.837h13.757a13.757,13.757,0,0,0,13.757-13.757V110.053A13.757,13.757,0,0,0,261.377,96.3H247.62V82.54Zm0,119.225a4.586,4.586,0,0,1,4.586,4.586v55.027a4.586,4.586,0,0,1-4.586,4.586H13.757a4.586,4.586,0,0,1-4.586-4.586V206.35a4.586,4.586,0,0,1,4.586-4.586ZM36.684,192.594V178.837h9.171v13.757Zm18.342,0V178.837h165.08v13.757Zm174.251,0V178.837h9.171v13.757Zm32.1-87.126a4.586,4.586,0,0,1,4.586,4.586V165.08a4.586,4.586,0,0,1-4.586,4.586H13.757a4.586,4.586,0,0,1-4.586-4.586V110.053a4.586,4.586,0,0,1,4.586-4.586ZM36.684,96.3V82.54h9.171V96.3Zm18.342,0V82.54h165.08V96.3Zm174.251,0V82.54h9.171V96.3ZM13.757,73.369a4.586,4.586,0,0,1-4.586-4.586V13.757a4.586,4.586,0,0,1,4.586-4.586h247.62a4.586,4.586,0,0,1,4.586,4.586V68.783a4.586,4.586,0,0,1-4.586,4.586Z" fill="#fff"/>
    </g>
  </g>
  <g id="Groupe_6" data-name="Groupe 6" transform="translate(27.453 27.51)">
    <g id="Groupe_5" data-name="Groupe 5">
      <path id="Tracé_9" data-name="Tracé 9" d="M167.179,57.168H74.624a13.756,13.756,0,1,0,0,9.171h92.555a4.586,4.586,0,0,0,0-9.171ZM61.711,66.339A4.586,4.586,0,1,1,66.3,61.754,4.586,4.586,0,0,1,61.711,66.339Z" transform="translate(-47.894 -47.994)" fill="#fff"/>
    </g>
  </g>
  <g id="Groupe_8" data-name="Groupe 8" transform="translate(201.636 18.243)">
    <g id="Groupe_7" data-name="Groupe 7" transform="translate(0 0)">
      <rect id="Rectangle_5" data-name="Rectangle 5" width="9" height="9" transform="translate(0.364 0.344)" fill="#fff"/>
    </g>
  </g>
  <g id="Groupe_10" data-name="Groupe 10" transform="translate(219.88 18.243)">
    <g id="Groupe_9" data-name="Groupe 9" transform="translate(0 0)">
      <rect id="Rectangle_6" data-name="Rectangle 6" width="9" height="9" transform="translate(0.12 0.344)" fill="#fff"/>
    </g>
  </g>
  <g id="Groupe_12" data-name="Groupe 12" transform="translate(238.123 18.243)">
    <g id="Groupe_11" data-name="Groupe 11" transform="translate(0 0)">
      <rect id="Rectangle_7" data-name="Rectangle 7" width="10" height="9" transform="translate(-0.123 0.344)" fill="#fff"/>
    </g>
  </g>
  <g id="Groupe_14" data-name="Groupe 14" transform="translate(183.393 18.243)">
    <g id="Groupe_13" data-name="Groupe 13" transform="translate(0 0)">
      <rect id="Rectangle_8" data-name="Rectangle 8" width="10" height="9" transform="translate(-0.393 0.344)" fill="#fff"/>
    </g>
  </g>
  <g id="Groupe_16" data-name="Groupe 16" transform="translate(165.15 18.243)">
    <g id="Groupe_15" data-name="Groupe 15" transform="translate(0 0)">
      <rect id="Rectangle_9" data-name="Rectangle 9" width="9" height="9" transform="translate(-0.15 0.344)" fill="#fff"/>
    </g>
  </g>
  <g id="Groupe_18" data-name="Groupe 18" transform="translate(201.636 36.487)">
    <g id="Groupe_17" data-name="Groupe 17" transform="translate(0 0)">
      <rect id="Rectangle_10" data-name="Rectangle 10" width="9" height="10" transform="translate(0.364 0.101)" fill="#fff"/>
    </g>
  </g>
  <g id="Groupe_20" data-name="Groupe 20" transform="translate(219.88 36.487)">
    <g id="Groupe_19" data-name="Groupe 19" transform="translate(0 0)">
      <rect id="Rectangle_11" data-name="Rectangle 11" width="9" height="10" transform="translate(0.12 0.101)" fill="#fff"/>
    </g>
  </g>
  <g id="Groupe_22" data-name="Groupe 22" transform="translate(238.123 36.487)">
    <g id="Groupe_21" data-name="Groupe 21" transform="translate(0 0)">
      <rect id="Rectangle_12" data-name="Rectangle 12" width="10" height="10" transform="translate(-0.123 0.101)" fill="#fff"/>
    </g>
  </g>
  <g id="Groupe_24" data-name="Groupe 24" transform="translate(183.393 36.487)">
    <g id="Groupe_23" data-name="Groupe 23" transform="translate(0 0)">
      <rect id="Rectangle_13" data-name="Rectangle 13" width="10" height="10" transform="translate(-0.393 0.101)" fill="#fff"/>
    </g>
  </g>
  <g id="Groupe_26" data-name="Groupe 26" transform="translate(165.15 36.487)">
    <g id="Groupe_25" data-name="Groupe 25" transform="translate(0 0)">
      <rect id="Rectangle_14" data-name="Rectangle 14" width="9" height="10" transform="translate(-0.15 0.101)" fill="#fff"/>
    </g>
  </g>
  <g id="Groupe_28" data-name="Groupe 28" transform="translate(201.636 54.73)">
    <g id="Groupe_27" data-name="Groupe 27" transform="translate(0 0)">
      <rect id="Rectangle_15" data-name="Rectangle 15" width="9" height="10" transform="translate(0.364 -0.142)" fill="#fff"/>
    </g>
  </g>
  <g id="Groupe_30" data-name="Groupe 30" transform="translate(219.88 54.73)">
    <g id="Groupe_29" data-name="Groupe 29" transform="translate(0 0)">
      <rect id="Rectangle_16" data-name="Rectangle 16" width="9" height="10" transform="translate(0.12 -0.142)" fill="#fff"/>
    </g>
  </g>
  <g id="Groupe_32" data-name="Groupe 32" transform="translate(238.123 54.73)">
    <g id="Groupe_31" data-name="Groupe 31" transform="translate(0 0)">
      <rect id="Rectangle_17" data-name="Rectangle 17" width="10" height="10" transform="translate(-0.123 -0.142)" fill="#fff"/>
    </g>
  </g>
  <g id="Groupe_34" data-name="Groupe 34" transform="translate(183.393 54.73)">
    <g id="Groupe_33" data-name="Groupe 33" transform="translate(0 0)">
      <rect id="Rectangle_18" data-name="Rectangle 18" width="10" height="10" transform="translate(-0.393 -0.142)" fill="#fff"/>
    </g>
  </g>
  <g id="Groupe_36" data-name="Groupe 36" transform="translate(165.15 54.73)">
    <g id="Groupe_35" data-name="Groupe 35" transform="translate(0 0)">
      <rect id="Rectangle_19" data-name="Rectangle 19" width="9" height="10" transform="translate(-0.15 -0.142)" fill="#fff"/>
    </g>
  </g>
  <g id="Groupe_38" data-name="Groupe 38" transform="translate(27.453 123.806)">
    <g id="Groupe_37" data-name="Groupe 37">
      <path id="Tracé_10" data-name="Tracé 10" d="M167.179,225.168H74.624a13.757,13.757,0,1,0,0,9.171h92.556a4.586,4.586,0,0,0,0-9.171ZM61.711,234.339a4.586,4.586,0,1,1,4.586-4.586A4.586,4.586,0,0,1,61.711,234.339Z" transform="translate(-47.894 -215.994)" fill="#fff"/>
    </g>
  </g>
  <g id="Groupe_40" data-name="Groupe 40" transform="translate(201.636 114.261)">
    <g id="Groupe_39" data-name="Groupe 39" transform="translate(0 0)">
      <rect id="Rectangle_20" data-name="Rectangle 20" width="9" height="9" transform="translate(0.364 0.327)" fill="#fff"/>
    </g>
  </g>
  <g id="Groupe_42" data-name="Groupe 42" transform="translate(219.88 114.261)">
    <g id="Groupe_41" data-name="Groupe 41" transform="translate(0 0)">
      <rect id="Rectangle_21" data-name="Rectangle 21" width="9" height="9" transform="translate(0.12 0.327)" fill="#fff"/>
    </g>
  </g>
  <g id="Groupe_44" data-name="Groupe 44" transform="translate(238.123 114.261)">
    <g id="Groupe_43" data-name="Groupe 43" transform="translate(0 0)">
      <rect id="Rectangle_22" data-name="Rectangle 22" width="10" height="9" transform="translate(-0.123 0.327)" fill="#fff"/>
    </g>
  </g>
  <g id="Groupe_46" data-name="Groupe 46" transform="translate(183.393 114.261)">
    <g id="Groupe_45" data-name="Groupe 45" transform="translate(0 0)">
      <rect id="Rectangle_23" data-name="Rectangle 23" width="10" height="9" transform="translate(-0.393 0.327)" fill="#fff"/>
    </g>
  </g>
  <g id="Groupe_48" data-name="Groupe 48" transform="translate(165.15 114.261)">
    <g id="Groupe_47" data-name="Groupe 47" transform="translate(0 0)">
      <rect id="Rectangle_24" data-name="Rectangle 24" width="9" height="9" transform="translate(-0.15 0.327)" fill="#fff"/>
    </g>
  </g>
  <g id="Groupe_50" data-name="Groupe 50" transform="translate(201.636 132.504)">
    <g id="Groupe_49" data-name="Groupe 49" transform="translate(0 0)">
      <rect id="Rectangle_25" data-name="Rectangle 25" width="9" height="10" transform="translate(0.364 0.084)" fill="#fff"/>
    </g>
  </g>
  <g id="Groupe_52" data-name="Groupe 52" transform="translate(219.88 132.504)">
    <g id="Groupe_51" data-name="Groupe 51" transform="translate(0 0)">
      <rect id="Rectangle_26" data-name="Rectangle 26" width="9" height="10" transform="translate(0.12 0.084)" fill="#fff"/>
    </g>
  </g>
  <g id="Groupe_54" data-name="Groupe 54" transform="translate(238.123 132.504)">
    <g id="Groupe_53" data-name="Groupe 53" transform="translate(0 0)">
      <rect id="Rectangle_27" data-name="Rectangle 27" width="10" height="10" transform="translate(-0.123 0.084)" fill="#fff"/>
    </g>
  </g>
  <g id="Groupe_56" data-name="Groupe 56" transform="translate(183.393 132.504)">
    <g id="Groupe_55" data-name="Groupe 55" transform="translate(0 0)">
      <rect id="Rectangle_28" data-name="Rectangle 28" width="10" height="10" transform="translate(-0.393 0.084)" fill="#fff"/>
    </g>
  </g>
  <g id="Groupe_58" data-name="Groupe 58" transform="translate(165.15 132.504)">
    <g id="Groupe_57" data-name="Groupe 57" transform="translate(0 0)">
      <rect id="Rectangle_29" data-name="Rectangle 29" width="9" height="10" transform="translate(-0.15 0.084)" fill="#fff"/>
    </g>
  </g>
  <g id="Groupe_60" data-name="Groupe 60" transform="translate(201.636 151.707)">
    <g id="Groupe_59" data-name="Groupe 59" transform="translate(0 0)">
      <rect id="Rectangle_30" data-name="Rectangle 30" width="9" height="9" transform="translate(0.364 -0.12)" fill="#fff"/>
    </g>
  </g>
  <g id="Groupe_62" data-name="Groupe 62" transform="translate(219.88 151.707)">
    <g id="Groupe_61" data-name="Groupe 61" transform="translate(0 0)">
      <rect id="Rectangle_31" data-name="Rectangle 31" width="9" height="9" transform="translate(0.12 -0.12)" fill="#fff"/>
    </g>
  </g>
  <g id="Groupe_64" data-name="Groupe 64" transform="translate(238.123 151.707)">
    <g id="Groupe_63" data-name="Groupe 63" transform="translate(0 0)">
      <rect id="Rectangle_32" data-name="Rectangle 32" width="10" height="9" transform="translate(-0.123 -0.12)" fill="#fff"/>
    </g>
  </g>
  <g id="Groupe_66" data-name="Groupe 66" transform="translate(183.393 151.707)">
    <g id="Groupe_65" data-name="Groupe 65" transform="translate(0 0)">
      <rect id="Rectangle_33" data-name="Rectangle 33" width="10" height="9" transform="translate(-0.393 -0.12)" fill="#fff"/>
    </g>
  </g>
  <g id="Groupe_68" data-name="Groupe 68" transform="translate(165.15 151.707)">
    <g id="Groupe_67" data-name="Groupe 67" transform="translate(0 0)">
      <rect id="Rectangle_34" data-name="Rectangle 34" width="9" height="9" transform="translate(-0.15 -0.12)" fill="#fff"/>
    </g>
  </g>
  <g id="Groupe_70" data-name="Groupe 70" transform="translate(27.453 220.103)">
    <g id="Groupe_69" data-name="Groupe 69">
      <path id="Tracé_11" data-name="Tracé 11" d="M167.179,393.168H74.624a13.757,13.757,0,1,0,0,9.171h92.556a4.586,4.586,0,0,0,0-9.171ZM61.711,402.34a4.586,4.586,0,1,1,4.586-4.586A4.586,4.586,0,0,1,61.711,402.34Z" transform="translate(-47.894 -383.994)" fill="#fff"/>
    </g>
  </g>
  <g id="Groupe_72" data-name="Groupe 72" transform="translate(201.636 211.238)">
    <g id="Groupe_71" data-name="Groupe 71" transform="translate(0 0)">
      <rect id="Rectangle_35" data-name="Rectangle 35" width="9" height="8" transform="translate(0.364 0.35)" fill="#fff"/>
    </g>
  </g>
  <g id="Groupe_74" data-name="Groupe 74" transform="translate(219.88 211.238)">
    <g id="Groupe_73" data-name="Groupe 73" transform="translate(0 0)">
      <rect id="Rectangle_36" data-name="Rectangle 36" width="9" height="8" transform="translate(0.12 0.35)" fill="#fff"/>
    </g>
  </g>
  <g id="Groupe_76" data-name="Groupe 76" transform="translate(238.123 211.238)">
    <g id="Groupe_75" data-name="Groupe 75" transform="translate(0 0)">
      <rect id="Rectangle_37" data-name="Rectangle 37" width="10" height="8" transform="translate(-0.123 0.35)" fill="#fff"/>
    </g>
  </g>
  <g id="Groupe_78" data-name="Groupe 78" transform="translate(183.393 211.238)">
    <g id="Groupe_77" data-name="Groupe 77" transform="translate(0 0)">
      <rect id="Rectangle_38" data-name="Rectangle 38" width="10" height="8" transform="translate(-0.393 0.35)" fill="#fff"/>
    </g>
  </g>
  <g id="Groupe_80" data-name="Groupe 80" transform="translate(165.15 211.238)">
    <g id="Groupe_79" data-name="Groupe 79" transform="translate(0 0)">
      <rect id="Rectangle_39" data-name="Rectangle 39" width="9" height="8" transform="translate(-0.15 0.35)" fill="#fff"/>
    </g>
  </g>
  <g id="Groupe_82" data-name="Groupe 82" transform="translate(201.636 229.481)">
    <g id="Groupe_81" data-name="Groupe 81" transform="translate(0 0)">
      <rect id="Rectangle_40" data-name="Rectangle 40" width="9" height="9" transform="translate(0.364 0.106)" fill="#fff"/>
    </g>
  </g>
  <g id="Groupe_84" data-name="Groupe 84" transform="translate(219.88 229.481)">
    <g id="Groupe_83" data-name="Groupe 83" transform="translate(0 0)">
      <rect id="Rectangle_41" data-name="Rectangle 41" width="9" height="9" transform="translate(0.12 0.106)" fill="#fff"/>
    </g>
  </g>
  <g id="Groupe_86" data-name="Groupe 86" transform="translate(238.123 229.481)">
    <g id="Groupe_85" data-name="Groupe 85" transform="translate(0 0)">
      <rect id="Rectangle_42" data-name="Rectangle 42" width="10" height="9" transform="translate(-0.123 0.106)" fill="#fff"/>
    </g>
  </g>
  <g id="Groupe_88" data-name="Groupe 88" transform="translate(183.393 229.481)">
    <g id="Groupe_87" data-name="Groupe 87" transform="translate(0 0)">
      <rect id="Rectangle_43" data-name="Rectangle 43" width="10" height="9" transform="translate(-0.393 0.106)" fill="#fff"/>
    </g>
  </g>
  <g id="Groupe_90" data-name="Groupe 90" transform="translate(165.15 229.481)">
    <g id="Groupe_89" data-name="Groupe 89" transform="translate(0 0)">
      <rect id="Rectangle_44" data-name="Rectangle 44" width="9" height="9" transform="translate(-0.15 0.106)" fill="#fff"/>
    </g>
  </g>
  <g id="Groupe_92" data-name="Groupe 92" transform="translate(201.636 247.725)">
    <g id="Groupe_91" data-name="Groupe 91" transform="translate(0 0)">
      <rect id="Rectangle_45" data-name="Rectangle 45" width="9" height="9" transform="translate(0.364 -0.137)" fill="#fff"/>
    </g>
  </g>
  <g id="Groupe_94" data-name="Groupe 94" transform="translate(219.88 247.725)">
    <g id="Groupe_93" data-name="Groupe 93" transform="translate(0 0)">
      <rect id="Rectangle_46" data-name="Rectangle 46" width="9" height="9" transform="translate(0.12 -0.137)" fill="#fff"/>
    </g>
  </g>
  <g id="Groupe_96" data-name="Groupe 96" transform="translate(238.123 247.725)">
    <g id="Groupe_95" data-name="Groupe 95" transform="translate(0 0)">
      <rect id="Rectangle_47" data-name="Rectangle 47" width="10" height="9" transform="translate(-0.123 -0.137)" fill="#fff"/>
    </g>
  </g>
  <g id="Groupe_98" data-name="Groupe 98" transform="translate(183.393 247.725)">
    <g id="Groupe_97" data-name="Groupe 97" transform="translate(0 0)">
      <rect id="Rectangle_48" data-name="Rectangle 48" width="10" height="9" transform="translate(-0.393 -0.137)" fill="#fff"/>
    </g>
  </g>
  <g id="Groupe_100" data-name="Groupe 100" transform="translate(165.15 247.725)">
    <g id="Groupe_99" data-name="Groupe 99" transform="translate(0 0)">
      <rect id="Rectangle_49" data-name="Rectangle 49" width="9" height="9" transform="translate(-0.15 -0.137)" fill="#fff"/>
    </g>
  </g>
</svg>
